<?xml version="1.0" encoding="UTF-8" standalone="no"?><!DOCTYPE svg PUBLIC "-//W3C//DTD SVG 1.1//EN" "http://www.w3.org/Graphics/SVG/1.1/DTD/svg11.dtd"><svg width="100%" height="100%" viewBox="0 0 2925 287" version="1.1" xmlns="http://www.w3.org/2000/svg" xmlns:xlink="http://www.w3.org/1999/xlink" xml:space="preserve" xmlns:serif="http://www.serif.com/" style="fill-rule:evenodd;clip-rule:evenodd;stroke-linejoin:round;stroke-miterlimit:2;"><g transform="matrix(1,0,0,1,-137.779237,-325.681967)"><g transform="matrix(4.991036,0,0,4.991036,23.982746,-94.892217)"><path d="M223.764,128.071L223.764,140.613L211.516,140.613L211.516,135.156C211.273,135.722 210.658,136.521 209.672,137.555C208.685,138.589 207.373,139.521 205.735,140.351C204.097,141.181 202.175,141.596 199.968,141.596C196.715,141.596 193.857,140.799 191.396,139.206C188.936,137.612 187.023,135.472 185.658,132.784C184.293,130.096 183.611,127.109 183.611,123.824C183.611,120.538 184.293,117.551 185.658,114.863C187.023,112.175 188.936,110.028 191.396,108.421C193.857,106.814 196.715,106.01 199.968,106.01C202.095,106.01 203.945,106.347 205.517,107.021C207.089,107.695 208.373,108.487 209.366,109.398C210.36,110.309 211.037,111.141 211.397,111.896L211.397,106.993L235.39,106.993L241.132,122.765C239.034,121.799 236.839,121.501 234.115,121.463C232.219,121.404 230.296,121.637 228.479,122.177L223.764,110.987L223.764,124.519C223.443,124.761 223.132,125.018 222.833,125.29C222.383,125.69 221.954,126.132 221.567,126.594C221.374,126.826 221.203,127.057 221.01,127.288C220.945,127.351 220.967,127.456 221.01,127.52C221.057,127.581 222.482,126.641 223.764,125.917L223.764,126.962C223.492,127.444 223.271,127.951 223.112,128.466C223.09,128.508 223.112,128.55 223.155,128.592C223.173,128.611 223.428,128.377 223.764,128.071ZM247.345,118.83L250.481,110.223C249.908,112.389 249.579,114.681 249.472,117.005C249.45,117.236 249.45,117.488 249.45,117.72C249.321,117.825 249.193,117.951 249.064,118.056C247.584,119.486 246.49,121.421 245.868,123.482C245.877,123.218 245.901,122.955 245.937,122.694L247.069,119.587C247.326,119.173 247.62,118.78 247.949,118.414C247.743,118.544 247.541,118.683 247.345,118.83ZM282.213,106.2C284.54,106.484 286.632,107.09 288.49,108.017C291.172,109.355 293.244,111.341 294.704,113.975C295.796,115.945 296.48,118.273 296.756,120.96L296.756,84.266L309.227,84.266L309.227,140.613L296.756,140.613L296.756,126.424L272.449,126.424C272.544,127.639 272.93,128.714 273.605,129.649C274.281,130.584 275.226,131.314 276.441,131.84C277.655,132.365 279.102,132.628 280.781,132.628C282.351,132.628 283.774,132.467 285.05,132.147C286.327,131.826 287.436,131.416 288.378,130.918C289.319,130.42 290.043,129.912 290.548,129.393L295.38,137.091C294.698,137.829 293.739,138.542 292.503,139.231C291.268,139.92 289.64,140.487 287.62,140.93C285.6,141.374 283.047,141.596 279.962,141.596C276.236,141.596 272.926,140.9 270.032,139.507C269.79,139.391 269.552,139.27 269.319,139.144C269.427,136.76 269.505,134.377 269.547,131.999C269.676,124.786 269.461,117.551 268.904,110.38C268.856,109.762 268.805,109.144 268.752,108.527C268.874,108.455 268.997,108.384 269.121,108.314C270.412,107.586 271.829,107.03 273.373,106.647C273.405,107.347 273.382,108.054 273.3,108.761C273.577,108.039 273.798,107.285 273.948,106.514C274.051,106.492 274.154,106.471 274.257,106.45C274.411,107.696 274.408,109.422 274.459,109.455C274.544,109.497 274.652,109.455 274.695,109.371C275.102,108.55 275.445,107.667 275.638,106.742C275.917,108.235 275.853,109.728 275.51,111.242C276.282,109.896 276.818,108.34 277.011,106.784C277.14,106.994 277.29,107.184 277.419,107.373C277.547,108.256 277.504,109.16 277.354,110.107L277.226,110.759C277.14,111.074 277.032,111.411 276.947,111.726C276.861,111.936 276.668,112.462 276.582,112.672C276.732,112.504 277.118,112.041 277.247,111.873C277.44,111.6 277.676,111.305 277.869,111.011L278.234,110.401C278.319,110.254 278.405,110.086 278.491,109.938C278.856,110.801 278.791,113.366 278.834,113.577C278.898,113.64 279.006,113.619 279.07,113.556C279.799,112.63 280.164,111.453 280.357,110.275C280.917,111.64 281.115,113.085 281.013,114.546C280.457,114.411 279.841,114.344 279.164,114.344C277.799,114.344 276.649,114.61 275.714,115.142C274.779,115.675 274.066,116.364 273.575,117.21C273.083,118.056 272.804,118.964 272.735,119.933L285.204,119.933C285.177,119.046 284.945,118.173 284.508,117.313C284.285,116.875 284.006,116.475 283.67,116.115C284.154,113.799 284.008,111.314 283.317,108.971C283.033,108.009 282.66,107.086 282.213,106.2ZM265.889,136.677C264.866,135.709 263.974,134.602 263.214,133.355C262.558,132.279 262.033,131.11 261.637,129.846C262.672,130.685 263.554,131.784 264.249,133.008C263.992,132.125 263.649,131.242 263.177,130.401C264.004,130.961 265.644,132.07 266.107,132.313C266.124,132.348 266.141,132.384 266.158,132.42C266.158,132.394 266.159,132.367 266.161,132.34C266.177,132.347 266.19,132.353 266.201,132.356C266.109,133.788 266.005,135.229 265.889,136.677ZM255.978,128.312L255.84,128.641C255.737,128.362 255.623,128.086 255.498,127.814C255.663,127.975 255.822,128.141 255.978,128.312ZM255.564,129.3L251.615,138.727C250.236,135.238 248.713,131.619 247.069,127.751C247.091,127.751 247.091,127.751 247.112,127.772C247.219,127.814 247.327,127.877 247.434,127.94L247.756,128.15C247.949,128.298 248.206,128.508 248.378,128.676L248.678,128.971C249.085,129.37 249.429,129.833 249.815,130.317C249.858,130.38 249.943,130.338 249.901,130.274C249.622,129.58 249.257,128.844 248.807,128.214C248.764,128.171 248.742,128.108 248.699,128.066C249.729,128.529 250.651,129.286 251.423,130.253C251.123,129.139 250.608,128.045 249.922,127.078C250.308,127.309 250.673,127.604 251.037,127.94C251.145,128.066 251.273,128.171 251.38,128.298C251.488,128.424 251.595,128.55 251.702,128.697C251.809,128.823 251.917,128.971 252.024,129.097L252.346,129.517C252.41,129.602 252.517,129.538 252.474,129.454C252.367,129.118 252.26,128.76 252.11,128.424C252.045,128.256 251.96,128.087 251.874,127.919C251.788,127.751 251.681,127.583 251.595,127.414C251.552,127.351 251.509,127.267 251.466,127.204C252.281,127.393 253.032,127.772 253.697,128.466C254.126,128.908 254.512,129.454 254.812,130.022C254.705,129.707 254.619,129.391 254.469,129.076C254.04,128.087 253.354,127.204 252.496,126.573C253.651,127.243 254.683,128.192 255.564,129.3ZM249.795,140.613L239.276,140.613C239.098,140.112 238.732,139.22 238.597,138.75C238.383,138.098 238.233,137.488 238.211,136.941C238.576,137.845 239.284,138.686 240.056,139.296C239.069,138.077 238.64,136.584 238.962,135.196C239.455,136.205 240.27,137.193 241.235,137.74C240.528,136.647 240.42,135.406 240.699,134.312C241.15,135.174 241.75,135.953 242.415,136.605C242.522,136.71 242.694,136.605 242.63,136.478C242.265,135.616 241.965,134.754 241.879,133.934C242.222,134.544 242.63,135.111 243.101,135.616C242.801,134.48 242.758,133.408 242.994,132.399C243.144,133.008 243.359,133.597 243.595,134.144C243.723,132.083 244.41,130.253 245.654,128.76C245.697,128.718 245.74,128.676 245.761,128.634C247.186,132.775 248.554,136.719 249.795,140.613ZM238.741,140.613L237.758,140.613C237.655,140.259 237.571,139.904 237.503,139.549C237.896,139.949 238.311,140.293 238.741,140.613ZM237.29,140.613L236.578,140.613C236.572,140.595 236.566,140.577 236.56,140.558C236.431,140.201 236.345,139.822 236.259,139.444C236.131,138.834 236.152,138.224 236.088,137.614C236.342,138.638 236.755,139.661 237.29,140.613ZM233.625,134.391L231.044,128.266C231.606,127.757 232.221,127.315 232.892,126.952C232.334,127.646 231.541,129.307 231.584,129.37C231.67,129.433 233.707,127.772 234.651,127.351C233.943,128.108 233.321,128.929 232.828,129.812C233.814,128.781 234.93,127.961 236.152,127.33L236.152,127.351C235.702,128.066 235.423,128.865 235.359,129.644C236.538,128.024 238.683,127.372 240.592,127.688C240.356,127.835 240.142,128.003 239.927,128.171C237.847,129.013 236.024,130.338 234.822,132.167C234.377,132.883 233.976,133.625 233.625,134.391ZM230.767,127.608L230.432,126.814C231.015,126.38 231.575,126.111 232.056,125.963C231.573,126.466 231.142,127.021 230.767,127.608ZM258.074,106.993L258.493,106.993C258.666,107.643 258.875,108.279 259.102,108.866C259.071,108.236 259.076,107.609 259.116,106.993L260.09,106.993C260.139,107.162 260.191,107.33 260.239,107.499C260.22,107.329 260.204,107.161 260.192,106.993L264.908,106.993L262.462,112.833C261.074,112.642 259.632,112.685 258.222,112.946C257.3,113.114 256.399,113.387 255.52,113.745C255.477,112.147 255.777,110.696 256.228,109.329C256.442,109.833 256.678,110.296 256.978,110.696C257.064,110.843 257,108.656 257.107,107.793C257.279,108.319 257.965,109.413 257.965,109.265C257.993,108.514 258.012,107.745 258.074,106.993ZM262.039,113.842L261.849,114.296C261.826,114.287 261.804,114.279 261.783,114.271C261.461,114.165 261.139,114.06 260.796,113.997C261.131,113.927 261.57,113.878 262.039,113.842ZM261.421,115.319L260.971,116.393C260.394,116.046 259.743,115.802 259.102,115.638C259.863,115.41 260.639,115.309 261.421,115.319ZM260.642,117.178L260.13,118.399C259.94,118.227 259.735,118.031 259.531,117.867L259.037,117.488L258.651,117.236C259.073,117.109 259.925,117.134 260.642,117.178ZM260,118.71L257.839,123.87C256.796,123.506 255.732,123.258 254.683,123.145C253.611,123.019 252.56,123.04 251.531,123.187L251.209,123.25C252.389,122.577 253.847,122.346 255.155,122.83C254.705,122.241 254.061,121.778 253.332,121.442C254.598,121.295 255.885,121.337 257.171,121.631C256.335,121.211 255.434,120.874 254.49,120.664C255.434,120.496 257.815,120.748 257.879,120.685C257.922,120.622 257.901,120.517 257.836,120.474C257.171,120.033 256.421,119.675 255.627,119.423C256.936,119.318 258.222,119.507 259.488,119.928C258.394,119.129 257.086,118.519 255.756,118.224C255.949,118.14 256.12,118.014 256.314,117.93C257.086,117.888 257.879,118.014 258.673,118.224L259.23,118.393C259.473,118.492 259.753,118.609 260,118.71ZM283.083,115.571C282.913,115.435 282.733,115.305 282.542,115.183C282.256,115 281.943,114.847 281.603,114.724C281.869,114.205 282.137,113.608 282.244,113.177C282.33,112.799 282.395,112.42 282.437,112.02C282.721,112.904 282.934,114.462 283.083,115.571ZM266.161,132.34C266.145,132.333 266.127,132.324 266.107,132.313C265.798,131.68 265.451,131.082 265.086,130.485C265.472,130.737 265.858,131.011 266.223,131.263C266.201,131.515 266.201,131.747 266.18,131.999C266.18,132.116 266.166,132.233 266.161,132.34ZM260.799,125.25C260.757,124.66 260.736,124.055 260.736,123.435C260.736,121.229 261.061,119.17 261.71,117.255C261.767,117.258 261.806,117.259 261.826,117.257C261.89,117.194 261.869,117.11 261.826,117.047C261.815,117.036 261.804,117.026 261.794,117.016C261.99,116.463 262.214,115.923 262.465,115.395C262.924,115.456 263.384,115.552 263.842,115.68C263.885,115.68 263.928,115.68 263.949,115.638C263.977,115.61 263.398,115.172 262.77,114.785C262.808,114.713 262.847,114.641 262.886,114.569C263.034,114.297 263.189,114.031 263.351,113.771C264.269,113.735 265.032,113.725 265.043,113.682C265.086,113.598 265.021,113.493 264.936,113.45C264.564,113.311 264.183,113.193 263.796,113.093C264.55,112.01 265.433,111.036 266.446,110.173C266.45,110.305 266.454,110.437 266.459,110.569C266.694,117.026 266.63,123.419 266.287,129.791C264.893,128.256 263.327,126.91 261.654,125.795C261.376,125.606 261.077,125.439 260.799,125.25ZM254.555,110.191C254.705,111.432 254.984,112.714 255.434,113.829C254.812,114.081 254.212,114.376 253.611,114.712C253.675,113.093 253.954,111.537 254.555,110.191ZM250.351,116.962C250.63,116.121 250.93,115.301 251.23,114.481C251.252,115.049 251.316,115.617 251.38,116.163C251.016,116.416 250.673,116.668 250.351,116.962ZM252.989,113.24C253.053,113.787 253.139,114.355 253.268,114.902C252.882,115.133 252.496,115.364 252.131,115.617C252.431,114.796 252.775,113.85 252.989,113.24ZM195.822,123.824C195.822,125.362 196.177,126.738 196.886,127.952C197.596,129.165 198.543,130.115 199.727,130.8C200.91,131.485 202.219,131.827 203.654,131.827C205.155,131.827 206.483,131.481 207.637,130.789C208.791,130.096 209.699,129.143 210.36,127.929C211.022,126.716 211.353,125.347 211.353,123.824C211.353,122.3 211.022,120.931 210.36,119.718C209.699,118.504 208.791,117.544 207.637,116.838C206.483,116.132 205.155,115.779 203.654,115.779C202.219,115.779 200.91,116.128 199.727,116.827C198.543,117.526 197.596,118.482 196.886,119.695C196.177,120.909 195.822,122.285 195.822,123.824ZM485.392,134.264L483.298,140.613L471.891,140.613L463.999,121.14L456.178,140.613L444.741,140.613L433.625,106.993L446.815,106.993L452.179,127.297L459.919,107.648L468.109,107.648L475.748,127.297L477.723,119.895C478.41,122.646 480.322,128.194 485.392,134.264ZM478.098,118.491L481.165,106.993L494.384,106.993L488.44,125.019C485.145,122.734 481.674,120.52 478.098,118.491ZM491.402,127.125C491.231,126.093 491.145,125.019 491.145,123.906C491.145,120.471 491.958,117.405 493.584,114.709C495.209,112.012 497.45,109.888 500.307,108.337C500.97,107.977 501.656,107.659 502.363,107.382C502.402,107.665 503.3,108.252 503.3,108.252C503.6,108.552 504.738,108.492 504.738,108.492C505.696,108.012 506.595,108.791 506.595,108.791C506.595,108.791 509.77,110.768 510.369,111.067C510.968,111.367 511.627,111.427 511.807,111.547C511.986,111.607 512.885,112.206 512.885,112.206C513.184,112.385 516.479,114.782 516.479,114.782C516.18,115.021 515.94,116.818 515.94,116.818C516.539,116.639 516.958,117.897 516.958,117.897C516.18,120.892 517.498,120.652 517.617,121.131C517.797,121.611 518.276,122.27 518.276,122.27C518.636,122.749 518.276,124.067 518.276,124.067C518.157,124.426 517.677,124.905 517.677,124.905C517.435,125.42 517.101,125.782 516.83,126.014C516.985,125.336 517.063,124.614 517.063,123.846C517.063,122.377 516.779,121.07 516.21,119.924C515.642,118.779 514.839,117.881 513.802,117.231C512.764,116.581 511.531,116.256 510.101,116.256C508.672,116.256 507.432,116.581 506.381,117.231C505.33,117.881 504.513,118.779 503.931,119.924C503.349,121.07 503.058,122.377 503.058,123.846C503.058,125.315 503.349,126.619 503.931,127.757C504.239,128.359 504.612,128.889 505.052,129.349C504.971,129.411 504.887,129.467 504.798,129.518C504.378,129.758 503.42,130.177 502.462,131.255C501.803,131.914 500.545,132.933 499.706,133.592C497.144,131.465 494.357,129.279 491.402,127.125ZM504.938,106.583C506.559,106.201 508.28,106.01 510.101,106.01C512.439,106.01 514.602,106.324 516.591,106.953C516.023,107.145 515.697,107.451 515.041,108.012C514.143,108.731 514.622,109.81 514.622,109.81C514.562,109.929 514.862,110.648 514.862,110.648C514.862,110.648 514.203,110.468 513.963,110.468C513.664,110.409 513.304,110.349 512.406,109.81C511.567,109.21 509.35,108.192 508.033,107.773C506.775,107.413 505.576,107.054 505.157,106.754C505.084,106.702 505.01,106.644 504.938,106.583ZM521.627,109.464C523.599,110.867 525.203,112.615 526.438,114.709C527.434,116.395 528.119,118.226 528.492,120.2L528.492,106.993L540.918,106.993L540.918,111.749C541.21,111.196 541.686,110.542 542.346,109.789C543.193,108.821 544.378,107.949 545.901,107.174C547.423,106.398 549.294,106.01 551.513,106.01C553.057,106.01 554.484,106.246 555.794,106.718C555.954,106.775 556.107,106.832 556.256,106.889L556.256,84.266L568.727,84.266L568.727,121.068C568.998,118.847 569.606,116.779 570.551,114.863C571.876,112.175 573.739,110.028 576.14,108.421C578.542,106.814 581.369,106.01 584.623,106.01C586.777,106.01 588.688,106.344 590.356,107.01C592.024,107.676 593.374,108.465 594.406,109.376C595.439,110.287 596.075,111.127 596.316,111.896L596.316,84.266L608.739,84.266L608.739,140.613L596.439,140.613L596.439,135.156C595.9,136.173 595.045,137.177 593.874,138.168C592.702,139.158 591.324,139.976 589.738,140.624C588.152,141.272 586.447,141.596 584.623,141.596C581.369,141.596 578.542,140.799 576.14,139.206C573.739,137.612 571.876,135.472 570.551,132.784C569.606,130.868 568.998,128.8 568.727,126.58L568.727,140.613L556.256,140.613L556.256,113.136L553.817,118.225C553.455,117.746 552.786,117.258 551.811,116.762C550.836,116.266 549.626,116.018 548.181,116.018C546.508,116.018 545.135,116.437 544.062,117.276C542.988,118.115 542.196,119.133 541.685,120.332C541.174,121.531 540.918,122.67 540.918,123.749L540.918,140.613L528.492,140.613L528.492,127.604C528.119,129.572 527.434,131.389 526.438,133.056C524.847,135.722 522.644,137.811 519.831,139.325C517.945,140.34 515.867,141.014 513.595,141.349C514.44,138.62 514.502,136.467 514.502,136.467C514.562,135.988 515.7,135.329 515.7,135.329C516.659,135.089 518.875,134.191 518.875,134.191C519.534,133.771 521.511,133.232 521.511,133.232C523.488,132.094 523.967,129.039 524.027,128.5C524.147,127.961 524.506,127.302 524.506,127.302C525.285,125.564 525.285,121.79 525.285,121.79C525.645,122.21 528.161,123.707 528.161,123.707C528.82,124.067 529.479,125.325 529.479,125.325C529.419,125.564 529.778,125.684 529.778,125.684C529.778,125.684 530.437,126.223 530.557,126.583C530.617,126.882 531.216,127.661 531.216,127.661C532.294,128.2 531.995,127.541 531.995,127.541C531.935,127.302 532.354,127.541 532.354,127.541C532.833,128.02 532.893,127.421 532.893,127.421C532.653,127.122 532.833,126.882 532.833,126.882C533.073,126.822 533.732,127.062 533.732,127.062C535.05,127.302 535.109,127.062 535.109,127.062C535.169,126.822 534.331,126.763 534.331,126.763C534.57,126.643 534.031,126.403 534.031,126.403C533.731,126.463 533.612,126.223 533.073,126.163C532.533,126.104 531.455,124.905 531.455,124.905C531.395,124.426 530.676,124.247 530.377,124.067C530.077,123.887 529.838,123.468 529.179,122.689C528.52,121.85 527.082,120.832 526.483,120.293C525.884,119.754 525.285,119.035 525.285,119.035C525.405,118.735 525.225,118.256 525.225,118.256C524.985,117.957 524.626,117.837 524.386,117.477C524.147,117.118 524.267,117.118 523.967,116.639C523.608,116.159 523.548,116.1 523.308,115.441C523.248,115.261 523.068,114.901 522.829,114.482C523.308,114.003 523.308,112.984 523.308,112.984C523.668,113.044 524.267,112.685 524.267,112.685C524.067,112.685 523.867,112.645 523.668,112.565C523.728,112.146 523.248,111.427 523.068,111.367C522.829,111.247 522.769,110.888 522.529,110.588C522.23,110.289 522.11,110.528 521.751,110.409C521.42,110.243 521.597,109.57 521.627,109.464ZM509.016,131.286C509.346,131.327 509.687,131.348 510.04,131.351C511.664,131.431 514.143,131.495 514.143,131.495C511.747,133.052 511.807,135.209 511.807,135.209C511.867,135.928 511.507,138.025 511.507,138.025C511.335,138.541 510.977,140.234 510.678,141.59C510.487,141.594 510.295,141.596 510.101,141.596C509.69,141.596 509.284,141.586 508.884,141.567C506.813,139.668 504.442,137.537 501.803,135.329C502.342,135.029 502.941,134.79 502.941,134.79C505.157,133.891 506.775,131.615 507.074,131.375C507.374,131.195 508.752,131.255 508.752,131.255C508.813,131.266 508.903,131.276 509.016,131.286ZM523.668,112.565C523.069,112.266 522.649,111.487 522.649,111.487C523.368,111.786 523.608,112.326 523.668,112.565ZM588.428,131.827C589.929,131.827 591.274,131.481 592.461,130.789C593.648,130.096 594.588,129.143 595.279,127.929C595.97,126.716 596.316,125.347 596.316,123.824C596.316,122.3 595.97,120.931 595.279,119.718C594.588,118.504 593.648,117.544 592.461,116.838C591.274,116.132 589.929,115.779 588.428,115.779C587.001,115.779 585.707,116.128 584.547,116.827C583.386,117.526 582.466,118.482 581.786,119.695C581.106,120.909 580.766,122.285 580.766,123.824C580.766,125.362 581.106,126.738 581.786,127.952C582.466,129.165 583.386,130.115 584.547,130.8C585.707,131.485 587.001,131.827 588.428,131.827ZM522.709,114.302C522.23,113.404 521.631,112.445 521.631,112.445C521.212,112.026 521.991,112.146 521.991,112.146C522.829,112.505 522.769,113.703 522.709,114.302ZM28.791,137.2C27.389,136.022 26.205,134.641 25.239,133.056C23.613,130.39 22.8,127.34 22.8,123.906C22.8,120.471 23.613,117.405 25.239,114.709C26.864,112.012 29.105,109.888 31.961,108.337C34.818,106.786 38.083,106.01 41.756,106.01C45.429,106.01 48.672,106.786 51.486,108.337C54.299,109.888 56.501,112.012 58.093,114.709C58.883,116.046 59.477,117.473 59.875,118.992L59.875,106.993L72.323,106.993L72.323,111.937C72.626,111.034 73.308,110.127 74.367,109.216C75.427,108.305 76.755,107.543 78.351,106.93C79.947,106.317 81.666,106.01 83.51,106.01C85.876,106.01 88.175,106.486 90.409,107.437C92.643,108.387 94.483,109.898 95.931,111.969C96.959,113.439 97.622,115.232 97.921,117.347C98.241,116.384 98.643,115.458 99.127,114.569C100.56,111.934 102.639,109.849 105.362,108.314C108.085,106.778 111.371,106.01 115.22,106.01C118.879,106.01 122.049,106.679 124.731,108.017C127.413,109.355 129.485,111.341 130.945,113.975C130.965,114.011 130.985,114.047 131.005,114.084L131.005,106.993L136.726,106.993L136.726,93.193L149.027,93.193L149.027,106.993L156.584,106.993L156.584,117.238L149.027,117.238L149.027,126.593C149.027,127.985 149.238,129.111 149.659,129.971C150.081,130.831 150.831,131.261 151.908,131.261C152.655,131.261 153.288,131.102 153.807,130.785C154.326,130.467 154.64,130.25 154.749,130.133L156.83,134.465L156.83,106.993L169.256,106.993L169.256,111.749C169.548,111.196 170.024,110.542 170.683,109.789C171.531,108.821 172.716,107.949 174.238,107.174C175.761,106.398 177.632,106.01 179.851,106.01C181.395,106.01 182.822,106.246 184.132,106.718C185.443,107.189 186.398,107.656 186.999,108.117L182.155,118.225C181.793,117.746 181.124,117.258 180.149,116.762C179.174,116.266 177.964,116.018 176.519,116.018C174.846,116.018 173.473,116.437 172.399,117.276C171.326,118.115 170.534,119.133 170.022,120.332C169.511,121.531 169.256,122.67 169.256,123.749L169.256,140.613L156.83,140.613L156.83,140.04C155.904,140.405 154.772,140.745 153.433,141.058C151.9,141.417 150.193,141.596 148.312,141.596C144.949,141.596 142.177,140.647 139.997,138.75C137.816,136.853 136.726,133.922 136.726,129.958L136.726,117.238L132.289,117.238C132.854,119.178 133.136,121.367 133.136,123.803C133.136,124.022 133.129,124.462 133.116,125.124C133.102,125.786 133.068,126.219 133.013,126.424L108.69,126.424C108.785,127.639 109.171,128.714 109.846,129.649C110.522,130.584 111.467,131.314 112.682,131.84C113.896,132.365 115.343,132.628 117.022,132.628C118.592,132.628 120.015,132.467 121.291,132.147C122.568,131.826 123.677,131.416 124.619,130.918C125.56,130.42 126.284,129.912 126.789,129.393L131.621,137.091C130.938,137.829 129.98,138.542 128.744,139.231C127.509,139.92 125.881,140.487 123.861,140.93C121.841,141.374 119.288,141.596 116.203,141.596C112.477,141.596 109.167,140.9 106.273,139.507C103.379,138.115 101.106,136.064 99.455,133.355C98.917,132.472 98.466,131.526 98.103,130.516L98.103,140.613L85.632,140.613L85.632,122.152C85.632,119.757 85.059,117.947 83.912,116.723C82.766,115.498 81.264,114.886 79.408,114.886C78.177,114.886 77.019,115.211 75.934,115.861C74.85,116.511 73.977,117.412 73.315,118.563C72.654,119.715 72.323,121.049 72.323,122.565L72.323,140.613L59.875,140.613L59.875,128.808C59.477,130.318 58.883,131.734 58.093,133.056C56.501,135.722 54.299,137.811 51.486,139.325C51.371,139.387 51.256,139.447 51.14,139.506L51.296,138.93C51.337,138.934 51.374,138.912 51.416,138.898L51.71,138.802L51.789,138.776C51.945,138.725 52.05,138.592 51.999,138.436L51.962,138.323C51.946,138.273 51.915,138.226 51.877,138.188C51.794,138.106 51.674,138.06 51.568,138.095L51.501,138.117L51.861,136.817C51.903,136.822 51.953,136.84 51.994,136.826L52.149,136.776L52.357,136.708C52.513,136.658 52.602,136.484 52.551,136.328L52.514,136.215C52.481,136.113 52.39,136.022 52.287,135.985C52.232,135.965 52.174,135.961 52.12,135.978L52.064,135.996L52.464,134.527L52.482,134.461L52.762,133.431L52.802,133.286L54.91,132.711L54.927,132.707C55.412,132.568 56.279,132.052 56.634,131.588C56.756,131.428 56.817,131.275 56.783,131.145C56.751,131.023 56.638,130.932 56.475,130.868C55.957,130.661 54.936,130.716 54.44,130.859C54.431,130.861 53.668,131.139 52.554,131.547C52.518,131.561 52.481,131.574 52.444,131.588L52.272,131.65L52.194,131.588L52.143,131.546L51.43,130.967L50.07,129.864L50.126,129.846C50.282,129.795 50.374,129.632 50.323,129.476L50.286,129.363C50.236,129.207 50.076,129.163 49.92,129.213L49.558,129.331C49.516,129.345 49.47,129.34 49.439,129.369L48.368,128.48L48.435,128.459C48.59,128.408 48.687,128.251 48.636,128.096L48.6,127.982C48.549,127.827 48.369,127.727 48.213,127.777L47.839,127.899C47.816,127.906 47.795,127.917 47.776,127.929C47.806,127.872 47.836,127.815 47.865,127.757C48.433,126.619 48.718,125.315 48.718,123.846C48.718,122.377 48.433,121.07 47.865,119.924C47.297,118.779 46.494,117.881 45.456,117.231C44.419,116.581 43.186,116.256 41.756,116.256C40.327,116.256 39.087,116.581 38.035,117.231C36.984,117.881 36.168,118.779 35.586,119.924C35.004,121.07 34.713,122.377 34.713,123.846C34.713,125.315 35.004,126.619 35.586,127.757C36.168,128.894 36.984,129.778 38.035,130.407C39.087,131.036 40.327,131.351 41.756,131.351C43.186,131.351 44.419,131.036 45.456,130.407C45.969,130.096 46.424,129.724 46.822,129.289L48.764,131.588L49.472,132.425L49.638,132.621C49.555,132.651 49.473,132.681 49.39,132.711L43.991,134.692L43.305,134.197L42.528,133.637L42.207,133.406C42.07,133.307 41.836,133.267 41.688,133.315C41.539,133.363 41.508,133.507 41.619,133.633L42.334,134.445L42.528,134.665L43.002,135.204L43.152,135.374C43.194,135.423 43.259,135.608 43.253,135.673L43.249,135.799L43.249,135.801L43.159,136.73L43.159,136.731L43.038,137.983C43.022,138.151 43.129,138.248 43.278,138.2C43.427,138.151 43.593,137.979 43.646,137.819L44.059,136.561L44.059,136.561L44.334,135.715L45.806,135.296L45.913,135.265L45.915,135.264L50.105,134.07L50.09,134.228L50.09,134.228L50.091,134.231L50.105,134.233L50.06,135.178L50.06,135.183L49.675,140.171C47.305,141.121 44.665,141.596 41.756,141.596C38.083,141.596 34.818,140.839 31.961,139.325C31.093,138.865 30.281,138.351 29.526,137.784C30.31,137.706 31.092,137.618 31.872,137.523C32.245,137.477 32.617,137.431 32.99,137.383C33.238,137.351 33.485,137.32 33.733,137.287C35.27,137.085 36.804,136.866 38.336,136.628C39.359,136.468 40.39,136.303 41.412,136.128C41.712,136.077 41.989,136.024 42.319,135.971L42.319,135.969L42.334,135.81L42.019,135.458L42.019,135.458C41.814,135.488 41.609,135.552 41.403,135.6C40.365,135.843 39.322,136.064 38.272,136.257C36.754,136.537 35.225,136.766 33.69,136.928C33.582,136.939 33.475,136.95 33.367,136.96C33.312,136.966 33.258,136.972 33.203,136.977L33.13,136.983C33.093,136.987 33.056,136.99 33.019,136.994C32.983,136.997 32.947,137.001 32.91,137.004C32.883,137.006 32.855,137.009 32.828,137.011L32.632,137.029C32.631,137.028 32.63,137.029 32.629,137.029L32.347,137.051C32.254,137.059 32.159,137.059 32.066,137.065C31.971,137.072 31.878,137.078 31.783,137.078L31.781,137.078C30.879,137.168 29.975,137.181 29.071,137.196C28.978,137.198 28.884,137.199 28.791,137.2ZM121.445,119.933C121.418,119.046 121.186,118.173 120.749,117.313C120.312,116.453 119.657,115.743 118.783,115.183C117.91,114.624 116.783,114.344 115.405,114.344C114.04,114.344 112.89,114.61 111.955,115.142C111.02,115.675 110.307,116.364 109.816,117.21C109.324,118.056 109.045,118.964 108.976,119.933L121.445,119.933ZM358.665,141.404C357.665,141.532 356.602,141.596 355.478,141.596C352.115,141.596 349.343,140.647 347.163,138.75C344.982,136.853 343.892,133.922 343.892,129.958L343.892,117.238L338.171,117.238L338.171,111.665L335.617,116.289C335.096,115.894 334.135,115.403 332.735,114.815C331.336,114.226 329.775,113.932 328.052,113.932C326.722,113.932 325.606,114.128 324.704,114.521C323.802,114.913 323.351,115.532 323.351,116.378C323.351,117.21 323.851,117.881 324.852,118.391C325.854,118.9 327.299,119.342 329.188,119.714C330.831,120.054 332.497,120.579 334.186,121.29C335.875,122.002 337.288,123.043 338.427,124.414C339.567,125.785 340.136,127.623 340.136,129.929C340.136,132.281 339.625,134.218 338.603,135.738C337.58,137.258 336.241,138.443 334.584,139.292C332.928,140.14 331.126,140.736 329.18,141.08C327.235,141.424 325.349,141.596 323.522,141.596C320.963,141.596 318.735,141.363 316.838,140.898C314.94,140.432 313.406,139.903 312.235,139.31C311.063,138.717 310.247,138.24 309.785,137.88L313.783,129.687C314.493,130.292 315.652,130.969 317.26,131.717C318.869,132.466 320.577,132.84 322.387,132.84C324.131,132.84 325.481,132.581 326.437,132.064C327.392,131.546 327.87,130.854 327.87,129.989C327.87,129.331 327.642,128.792 327.185,128.373C326.728,127.954 326.072,127.598 325.216,127.306C324.36,127.015 323.336,126.747 322.145,126.504C321.048,126.261 319.884,125.91 318.654,125.451C317.425,124.991 316.267,124.362 315.183,123.561C314.098,122.761 313.215,121.743 312.534,120.507C311.853,119.271 311.512,117.782 311.512,116.039C311.512,113.81 312.23,111.955 313.664,110.474C315.099,108.992 316.967,107.878 319.27,107.131C321.574,106.384 324.025,106.01 326.623,106.01C328.81,106.01 330.819,106.196 332.65,106.567C334.482,106.938 336.018,107.356 337.259,107.822C337.595,107.948 337.899,108.067 338.171,108.18L338.171,106.993L343.892,106.993L343.892,93.193L356.193,93.193L356.193,106.993L363.165,106.993L363.165,84.266L375.648,84.266L375.648,111.937C375.951,111.034 376.63,110.127 377.686,109.216C378.742,108.305 380.068,107.543 381.664,106.93C383.259,106.317 384.983,106.01 386.835,106.01C389.2,106.01 391.499,106.486 393.732,107.437C395.966,108.387 397.807,109.898 399.255,111.969C400.324,113.497 400.998,115.373 401.278,117.598C401.611,116.545 402.041,115.535 402.567,114.569C404,111.934 406.078,109.849 408.801,108.314C411.524,106.778 414.811,106.01 418.66,106.01C422.318,106.01 425.488,106.679 428.171,108.017C430.853,109.355 432.924,111.341 434.385,113.975C435.845,116.61 436.576,119.886 436.576,123.803C436.576,124.022 436.569,124.462 436.555,125.124C436.541,125.786 436.507,126.219 436.453,126.424L412.129,126.424C412.225,127.639 412.61,128.714 413.286,129.649C413.962,130.584 414.907,131.314 416.121,131.84C417.336,132.365 418.783,132.628 420.462,132.628C422.032,132.628 423.455,132.467 424.731,132.147C426.007,131.826 427.116,131.416 428.058,130.918C429,130.42 429.723,129.912 430.228,129.393L435.06,137.091C434.378,137.829 433.419,138.542 432.184,139.231C430.948,139.92 429.321,140.487 427.3,140.93C425.28,141.374 422.728,141.596 419.643,141.596C415.916,141.596 412.606,140.9 409.712,139.507C406.819,138.115 404.546,136.064 402.894,133.355C402.298,132.376 401.809,131.319 401.428,130.185L401.428,140.613L388.957,140.613L388.957,122.152C388.957,119.757 388.423,117.947 387.356,116.723C386.288,115.498 384.827,114.886 382.97,114.886C381.739,114.886 380.561,115.211 379.437,115.861C378.313,116.511 377.4,117.412 376.699,118.563C375.998,119.715 375.648,121.049 375.648,122.565L375.648,140.613L366.747,140.613C366.48,140.075 366.215,139.537 365.945,139.001C365.824,138.765 365.06,137.571 365.033,137.308C364.976,136.753 365.14,136.221 365.164,135.643C365.164,135.641 365.166,135.64 365.17,135.639C365.551,135.551 365.789,135.165 365.735,134.777C365.619,133.948 365.354,132.923 365.361,132.917C365.371,132.908 365.594,133.066 365.605,133.075C366.357,133.652 366.926,134.063 367.602,134.738L367.603,134.739C367.905,134.995 368.161,135.278 368.294,135.66C368.385,135.892 368.509,136.11 368.611,136.337C368.743,136.6 368.781,137.003 369.099,137.105C369.101,137.105 369.102,137.106 369.104,137.106C369.251,137.135 369.404,137.137 369.555,137.147C369.665,137.155 369.687,137.077 369.701,136.998C369.703,136.981 369.721,136.971 369.738,136.976C370.007,137.057 370.157,136.971 370.197,136.768C370.202,136.746 370.223,136.732 370.245,136.736C370.619,136.81 370.639,136.642 370.713,136.409C370.717,136.397 370.728,136.389 370.741,136.389L370.849,136.405C370.891,136.412 370.977,136.397 371.011,136.352C371.159,136.152 370.982,136.025 371.027,135.891L371.031,135.884C371.164,135.693 371.078,135.565 370.972,135.4C370.411,134.443 369.576,134.016 368.703,133.415C368.701,133.415 368.7,133.413 368.699,133.412C368.003,132.756 367.427,132.028 366.819,131.28C366.819,131.28 366.127,130.459 365.977,129.991C365.971,129.972 366.135,129.263 366.135,129.263C366.347,127.969 366.178,126.308 366.517,125.667C367.958,122.943 366.761,122.553 365.976,120.167C365.968,120.145 366.378,120.418 366.401,120.42C366.547,120.433 366.665,120.5 366.788,120.555C366.817,120.568 366.843,120.533 366.822,120.509C366.777,120.459 366.729,120.405 366.676,120.345C366.661,120.329 366.667,120.305 366.687,120.298C366.781,120.264 366.864,120.233 366.948,120.203C366.947,120.196 366.944,120.19 366.943,120.184C366.21,120.411 365.802,119.439 365.631,118.842C365.622,118.813 365.657,118.792 365.679,118.812C365.8,118.926 365.891,119.057 366.04,119.119C366.066,119.131 366.091,119.101 366.076,119.077C365.913,118.814 365.821,118.517 365.63,118.272C365.424,117.991 365.335,117.675 365.347,117.327C365.425,116.21 367.379,117.37 367.347,116.178L367.347,116.175C367.333,116.014 367.191,115.79 367.321,115.619C367.351,115.578 367.455,115.584 367.415,115.404C367.408,115.371 367.347,115.334 367.324,115.328C367.333,115.318 367.415,115.289 367.428,115.204C367.464,114.954 367.301,115.011 367.254,114.78C367.244,114.728 367.266,114.671 367.314,114.652C368.037,114.38 367.371,113.995 367.092,113.325C367.012,113.109 366.909,112.87 366.829,112.654C366.797,112.567 366.826,112.513 366.901,112.455C367.539,111.98 368.189,111.464 368.439,110.677L368.439,110.676C368.57,110.366 368.466,109.836 368.057,109.82L368.053,109.82C367.307,109.847 366.678,110.264 365.985,110.516C365.972,110.521 365.957,110.515 365.95,110.502C365.175,109.13 362.793,109.078 361.697,110.089C361.696,110.089 361.696,110.09 361.695,110.09C360.483,110.983 358.976,113.114 360.549,114.327C360.563,114.338 360.564,114.36 360.552,114.372C359.58,115.34 359.686,116.072 359.441,117.238L359.354,117.238C359.288,117.084 359.234,116.952 359.045,116.875C359.045,116.874 359.043,116.874 359.043,116.874C358.557,116.631 358.06,116.418 357.533,116.284C356.334,116.028 355.003,116.382 354.034,117.114L354.032,117.115C353.598,117.497 353.078,117.894 352.922,118.48C352.87,118.642 352.79,118.774 352.659,118.882C352.174,119.292 352.044,119.965 352.239,120.548C352.594,121.472 352.438,122.286 353.616,122.452C353.64,122.456 353.649,122.484 353.633,122.502C353.48,122.663 353.438,122.868 353.351,123.052C353.323,123.114 353.266,123.161 353.2,123.18C352.479,123.392 351.883,123.788 351.466,124.419C351.111,124.954 351.253,125.473 351.697,125.853C351.986,126.111 352.368,126.057 352.73,126.016C352.75,126.013 352.767,126.032 352.762,126.052C352.497,127.03 352.038,127.971 351.929,129.001C351.831,129.75 351.771,130.504 351.736,131.259C351.734,131.275 351.747,131.289 351.763,131.29C351.869,131.297 351.972,131.304 352.092,131.312C352.109,131.313 352.123,131.33 352.119,131.348C351.952,132.197 351.575,132.982 351.485,133.847C351.388,134.873 352.221,135.743 353.165,135.997C353.361,136.059 353.554,136.061 353.725,135.958C353.739,135.949 353.756,135.953 353.765,135.966C354.385,136.963 355.298,137.773 355.617,138.932C355.619,138.944 355.632,138.953 355.644,138.953L355.812,138.953C355.829,138.953 355.843,138.939 355.842,138.922C355.774,137.936 355.445,137.06 354.806,136.302C354.788,136.282 354.806,136.25 354.833,136.255C356.024,136.461 357.166,136.024 358.304,135.731C358.321,135.726 358.34,135.74 358.34,135.759C358.346,136.274 358.266,136.768 358.427,137.267C358.506,137.568 358.601,137.864 358.767,138.131C358.881,138.35 359.131,138.527 359.088,138.8C358.959,139.67 358.819,140.538 358.665,141.404ZM352.992,123.712C352.947,124.155 352.9,124.575 352.844,125.015C352.818,125.215 352.813,125.42 352.719,125.61C352.715,125.617 352.709,125.622 352.702,125.625C351.993,125.856 351.523,125.176 351.931,124.603C352.208,124.234 352.567,123.943 352.945,123.684C352.967,123.67 352.994,123.687 352.992,123.712ZM424.884,119.933C424.857,119.046 424.625,118.173 424.188,117.313C423.751,116.453 423.096,115.743 422.223,115.183C421.349,114.624 420.223,114.344 418.844,114.344C417.479,114.344 416.329,114.61 415.394,115.142C414.46,115.675 413.747,116.364 413.255,117.21C412.764,118.056 412.484,118.964 412.416,119.933L424.884,119.933Z" style="fill:rgb(1,44,24);"/></g></g></svg>